<mxfile host="app.diagrams.net" modified="2021-03-16T09:10:59.163Z" agent="5.0 (Windows NT 10.0; Win64; x64) AppleWebKit/537.36 (KHTML, like Gecko) Chrome/89.0.4389.82 Safari/537.36" etag="xIxLhM2mSwWZrH0M4O9o" version="14.4.8" type="github">
  <diagram id="ZGgq6k-ltOVmovlfIZoH" name="Page-1">
    <mxGraphModel dx="2489" dy="762" grid="1" gridSize="10" guides="1" tooltips="1" connect="1" arrows="1" fold="1" page="1" pageScale="1" pageWidth="827" pageHeight="1169" math="0" shadow="0">
      <root>
        <mxCell id="0" />
        <mxCell id="1" parent="0" />
        <mxCell id="r_N18aDr957ke0yvaHsw-37" value="" style="rounded=0;whiteSpace=wrap;html=1;dashed=1;fillColor=none;" parent="1" vertex="1">
          <mxGeometry x="1040" y="934" width="260" height="326" as="geometry" />
        </mxCell>
        <mxCell id="r_N18aDr957ke0yvaHsw-36" value="" style="rounded=0;whiteSpace=wrap;html=1;dashed=1;fillColor=none;" parent="1" vertex="1">
          <mxGeometry x="930" y="780" width="370" height="150" as="geometry" />
        </mxCell>
        <mxCell id="p8cAAoTmblI4a2AUB24l-23" value="Setter referanse bilde" style="rounded=0;whiteSpace=wrap;html=1;fillColor=#fff2cc;strokeColor=#d6b656;" parent="1" vertex="1">
          <mxGeometry x="1315.25" y="348" width="139.5" height="32" as="geometry" />
        </mxCell>
        <mxCell id="p8cAAoTmblI4a2AUB24l-24" value="Henter ut kontur" style="rounded=0;whiteSpace=wrap;html=1;fillColor=#fff2cc;strokeColor=#d6b656;" parent="1" vertex="1">
          <mxGeometry x="1315.25" y="420" width="139.5" height="32" as="geometry" />
        </mxCell>
        <mxCell id="p8cAAoTmblI4a2AUB24l-25" value="Henter ut rektangler som samsvarer med malene" style="rounded=0;whiteSpace=wrap;html=1;fillColor=#fff2cc;strokeColor=#d6b656;" parent="1" vertex="1">
          <mxGeometry x="1314.75" y="496" width="139.5" height="32" as="geometry" />
        </mxCell>
        <mxCell id="p8cAAoTmblI4a2AUB24l-26" value="Return rektangler" style="ellipse;whiteSpace=wrap;html=1;fillColor=#d5e8d4;strokeColor=#82b366;" parent="1" vertex="1">
          <mxGeometry x="1304.5" y="576" width="161" height="49" as="geometry" />
        </mxCell>
        <mxCell id="p8cAAoTmblI4a2AUB24l-27" value="get_bokses(image, template)" style="ellipse;whiteSpace=wrap;html=1;fillColor=#d5e8d4;strokeColor=#82b366;" parent="1" vertex="1">
          <mxGeometry x="1300" y="248.5" width="170" height="49" as="geometry" />
        </mxCell>
        <mxCell id="p8cAAoTmblI4a2AUB24l-32" value="Setter referanse bilde Korallrev etter (k_etter)" style="rounded=0;whiteSpace=wrap;html=1;fillColor=#fff2cc;strokeColor=#d6b656;" parent="1" vertex="1">
          <mxGeometry x="690.5" y="470" width="209.75" height="32" as="geometry" />
        </mxCell>
        <mxCell id="GfadqTVx7JrLC5rxwEHc-11" style="edgeStyle=orthogonalEdgeStyle;rounded=0;orthogonalLoop=1;jettySize=auto;html=1;entryX=0.5;entryY=0;entryDx=0;entryDy=0;" edge="1" parent="1" source="p8cAAoTmblI4a2AUB24l-33" target="r_N18aDr957ke0yvaHsw-3">
          <mxGeometry relative="1" as="geometry" />
        </mxCell>
        <mxCell id="p8cAAoTmblI4a2AUB24l-33" value="Hent grener" style="rounded=1;whiteSpace=wrap;html=1;fillColor=#d5e8d4;strokeColor=#82b366;" parent="1" vertex="1">
          <mxGeometry x="-380" y="633.25" width="209.75" height="20" as="geometry" />
        </mxCell>
        <mxCell id="p8cAAoTmblI4a2AUB24l-35" value="&lt;font style=&quot;font-size: 19px&quot;&gt;Hovedprogram&lt;/font&gt;" style="text;html=1;align=center;verticalAlign=middle;resizable=0;points=[];autosize=1;" parent="1" vertex="1">
          <mxGeometry x="-360" y="542.5" width="140" height="20" as="geometry" />
        </mxCell>
        <mxCell id="p8cAAoTmblI4a2AUB24l-37" value="&lt;font style=&quot;font-size: 19px&quot;&gt;Hente ut bokser&lt;/font&gt;" style="text;html=1;align=center;verticalAlign=middle;resizable=0;points=[];autosize=1;" parent="1" vertex="1">
          <mxGeometry x="1295" y="185.25" width="150" height="20" as="geometry" />
        </mxCell>
        <mxCell id="p8cAAoTmblI4a2AUB24l-59" style="edgeStyle=orthogonalEdgeStyle;rounded=0;orthogonalLoop=1;jettySize=auto;html=1;exitX=0.5;exitY=1;exitDx=0;exitDy=0;entryX=0.5;entryY=0;entryDx=0;entryDy=0;" parent="1" source="p8cAAoTmblI4a2AUB24l-38" target="p8cAAoTmblI4a2AUB24l-44" edge="1">
          <mxGeometry relative="1" as="geometry" />
        </mxCell>
        <mxCell id="p8cAAoTmblI4a2AUB24l-38" value="Lager liste med ikke overlapp" style="rounded=0;whiteSpace=wrap;html=1;fillColor=#fff2cc;strokeColor=#d6b656;" parent="1" vertex="1">
          <mxGeometry x="932.75" y="730" width="139.5" height="32" as="geometry" />
        </mxCell>
        <mxCell id="p8cAAoTmblI4a2AUB24l-50" style="edgeStyle=orthogonalEdgeStyle;rounded=0;orthogonalLoop=1;jettySize=auto;html=1;entryX=0.5;entryY=0;entryDx=0;entryDy=0;" parent="1" source="p8cAAoTmblI4a2AUB24l-39" target="p8cAAoTmblI4a2AUB24l-45" edge="1">
          <mxGeometry relative="1" as="geometry">
            <mxPoint x="1109" y="980" as="targetPoint" />
          </mxGeometry>
        </mxCell>
        <mxCell id="p8cAAoTmblI4a2AUB24l-39" value="Overlapp = False" style="rounded=0;whiteSpace=wrap;html=1;fillColor=#fff2cc;strokeColor=#d6b656;" parent="1" vertex="1">
          <mxGeometry x="1039" y="878" width="139.5" height="32" as="geometry" />
        </mxCell>
        <mxCell id="p8cAAoTmblI4a2AUB24l-62" style="edgeStyle=orthogonalEdgeStyle;rounded=0;orthogonalLoop=1;jettySize=auto;html=1;entryX=0.5;entryY=1;entryDx=0;entryDy=0;" parent="1" source="p8cAAoTmblI4a2AUB24l-40" target="p8cAAoTmblI4a2AUB24l-44" edge="1">
          <mxGeometry relative="1" as="geometry">
            <mxPoint x="1003" y="1187.75" as="targetPoint" />
          </mxGeometry>
        </mxCell>
        <mxCell id="p8cAAoTmblI4a2AUB24l-40" value="Legg til boks i ikke overlapp" style="rounded=0;whiteSpace=wrap;html=1;fillColor=#fff2cc;strokeColor=#d6b656;" parent="1" vertex="1">
          <mxGeometry x="1141" y="1288" width="139.5" height="32" as="geometry" />
        </mxCell>
        <mxCell id="p8cAAoTmblI4a2AUB24l-41" value="Returner ikke_overlapp_liste" style="ellipse;whiteSpace=wrap;html=1;fillColor=#d5e8d4;strokeColor=#82b366;" parent="1" vertex="1">
          <mxGeometry x="827" y="980.75" width="161" height="49" as="geometry" />
        </mxCell>
        <mxCell id="p8cAAoTmblI4a2AUB24l-58" style="edgeStyle=orthogonalEdgeStyle;rounded=0;orthogonalLoop=1;jettySize=auto;html=1;exitX=0.5;exitY=1;exitDx=0;exitDy=0;entryX=0.5;entryY=0;entryDx=0;entryDy=0;" parent="1" source="p8cAAoTmblI4a2AUB24l-42" target="p8cAAoTmblI4a2AUB24l-38" edge="1">
          <mxGeometry relative="1" as="geometry" />
        </mxCell>
        <mxCell id="p8cAAoTmblI4a2AUB24l-42" value="filter_overlap(bokses, terskel)" style="ellipse;whiteSpace=wrap;html=1;fillColor=#d5e8d4;strokeColor=#82b366;" parent="1" vertex="1">
          <mxGeometry x="890" y="650.5" width="225" height="51.75" as="geometry" />
        </mxCell>
        <mxCell id="p8cAAoTmblI4a2AUB24l-43" value="&lt;font style=&quot;font-size: 19px&quot;&gt;Filter overlapp&lt;/font&gt;" style="text;html=1;align=center;verticalAlign=middle;resizable=0;points=[];autosize=1;" parent="1" vertex="1">
          <mxGeometry x="896" y="585" width="140" height="20" as="geometry" />
        </mxCell>
        <mxCell id="p8cAAoTmblI4a2AUB24l-49" style="edgeStyle=orthogonalEdgeStyle;rounded=0;orthogonalLoop=1;jettySize=auto;html=1;entryX=0.5;entryY=0;entryDx=0;entryDy=0;" parent="1" source="p8cAAoTmblI4a2AUB24l-44" target="p8cAAoTmblI4a2AUB24l-39" edge="1">
          <mxGeometry relative="1" as="geometry">
            <Array as="points">
              <mxPoint x="1003" y="830" />
              <mxPoint x="1109" y="830" />
            </Array>
          </mxGeometry>
        </mxCell>
        <mxCell id="p8cAAoTmblI4a2AUB24l-60" style="edgeStyle=orthogonalEdgeStyle;rounded=0;orthogonalLoop=1;jettySize=auto;html=1;entryX=0.5;entryY=0;entryDx=0;entryDy=0;" parent="1" source="p8cAAoTmblI4a2AUB24l-44" target="p8cAAoTmblI4a2AUB24l-41" edge="1">
          <mxGeometry relative="1" as="geometry">
            <Array as="points">
              <mxPoint x="908" y="829" />
            </Array>
          </mxGeometry>
        </mxCell>
        <mxCell id="p8cAAoTmblI4a2AUB24l-44" value="For boks in bokser" style="rhombus;whiteSpace=wrap;html=1;rounded=0;strokeColor=#d6b656;fillColor=#fff2cc;align=center;" parent="1" vertex="1">
          <mxGeometry x="954.75" y="780" width="95.5" height="98" as="geometry" />
        </mxCell>
        <mxCell id="p8cAAoTmblI4a2AUB24l-51" style="edgeStyle=orthogonalEdgeStyle;rounded=0;orthogonalLoop=1;jettySize=auto;html=1;entryX=0.5;entryY=0;entryDx=0;entryDy=0;exitX=1;exitY=0.5;exitDx=0;exitDy=0;" parent="1" source="p8cAAoTmblI4a2AUB24l-45" target="p8cAAoTmblI4a2AUB24l-47" edge="1">
          <mxGeometry relative="1" as="geometry">
            <Array as="points">
              <mxPoint x="1157" y="1000" />
              <mxPoint x="1211" y="1000" />
            </Array>
          </mxGeometry>
        </mxCell>
        <mxCell id="p8cAAoTmblI4a2AUB24l-45" value="For boks in ikke_overlapp" style="rhombus;whiteSpace=wrap;html=1;rounded=0;strokeColor=#d6b656;fillColor=#fff2cc;align=center;" parent="1" vertex="1">
          <mxGeometry x="1061" y="952" width="95.5" height="98" as="geometry" />
        </mxCell>
        <mxCell id="p8cAAoTmblI4a2AUB24l-53" value="" style="edgeStyle=orthogonalEdgeStyle;rounded=0;orthogonalLoop=1;jettySize=auto;html=1;" parent="1" source="p8cAAoTmblI4a2AUB24l-46" target="p8cAAoTmblI4a2AUB24l-40" edge="1">
          <mxGeometry relative="1" as="geometry" />
        </mxCell>
        <mxCell id="p8cAAoTmblI4a2AUB24l-64" style="edgeStyle=orthogonalEdgeStyle;rounded=0;orthogonalLoop=1;jettySize=auto;html=1;entryX=0.5;entryY=1;entryDx=0;entryDy=0;" parent="1" source="p8cAAoTmblI4a2AUB24l-46" target="p8cAAoTmblI4a2AUB24l-45" edge="1">
          <mxGeometry relative="1" as="geometry" />
        </mxCell>
        <mxCell id="p8cAAoTmblI4a2AUB24l-46" value="if IOU &amp;gt; Terskel" style="rhombus;whiteSpace=wrap;html=1;rounded=0;strokeColor=#d6b656;fillColor=#fff2cc;align=center;" parent="1" vertex="1">
          <mxGeometry x="1163" y="1140" width="95.5" height="98" as="geometry" />
        </mxCell>
        <mxCell id="p8cAAoTmblI4a2AUB24l-56" style="edgeStyle=orthogonalEdgeStyle;rounded=0;orthogonalLoop=1;jettySize=auto;html=1;exitX=0.5;exitY=1;exitDx=0;exitDy=0;entryX=0.5;entryY=0;entryDx=0;entryDy=0;" parent="1" source="p8cAAoTmblI4a2AUB24l-47" target="p8cAAoTmblI4a2AUB24l-46" edge="1">
          <mxGeometry relative="1" as="geometry" />
        </mxCell>
        <mxCell id="p8cAAoTmblI4a2AUB24l-47" value="regner ut IOU mellom boks og ikke_overlapp boks" style="rounded=0;whiteSpace=wrap;html=1;fillColor=#fff2cc;strokeColor=#d6b656;" parent="1" vertex="1">
          <mxGeometry x="1141" y="1050" width="139.5" height="52" as="geometry" />
        </mxCell>
        <mxCell id="p8cAAoTmblI4a2AUB24l-61" value="Løkke ferdig" style="text;html=1;strokeColor=none;fillColor=none;align=center;verticalAlign=middle;whiteSpace=wrap;rounded=0;dashed=1;" parent="1" vertex="1">
          <mxGeometry x="870" y="795" width="40" height="20" as="geometry" />
        </mxCell>
        <mxCell id="p8cAAoTmblI4a2AUB24l-65" value="Ja" style="text;html=1;align=center;verticalAlign=middle;resizable=0;points=[];autosize=1;" parent="1" vertex="1">
          <mxGeometry x="1220.5" y="1229" width="30" height="20" as="geometry" />
        </mxCell>
        <mxCell id="p8cAAoTmblI4a2AUB24l-66" value="Nei" style="text;html=1;align=center;verticalAlign=middle;resizable=0;points=[];autosize=1;" parent="1" vertex="1">
          <mxGeometry x="1121.5" y="1161.75" width="30" height="20" as="geometry" />
        </mxCell>
        <mxCell id="p8cAAoTmblI4a2AUB24l-67" value="Skriv litt i rapporten hvordan løkken fungerer" style="text;html=1;align=center;verticalAlign=middle;resizable=0;points=[];autosize=1;" parent="1" vertex="1">
          <mxGeometry x="1061" y="1390" width="250" height="20" as="geometry" />
        </mxCell>
        <mxCell id="r_N18aDr957ke0yvaHsw-1" value="a)" style="text;html=1;align=center;verticalAlign=middle;resizable=0;points=[];autosize=1;" parent="1" vertex="1">
          <mxGeometry x="1250.5" y="797.25" width="30" height="20" as="geometry" />
        </mxCell>
        <mxCell id="r_N18aDr957ke0yvaHsw-2" value="For å referer i tekst" style="text;html=1;align=center;verticalAlign=middle;resizable=0;points=[];autosize=1;" parent="1" vertex="1">
          <mxGeometry x="1340" y="819" width="120" height="20" as="geometry" />
        </mxCell>
        <mxCell id="GfadqTVx7JrLC5rxwEHc-12" value="" style="edgeStyle=orthogonalEdgeStyle;rounded=0;orthogonalLoop=1;jettySize=auto;html=1;" edge="1" parent="1" source="r_N18aDr957ke0yvaHsw-3" target="GfadqTVx7JrLC5rxwEHc-1">
          <mxGeometry relative="1" as="geometry" />
        </mxCell>
        <mxCell id="r_N18aDr957ke0yvaHsw-3" value="Sammenlign grener" style="rounded=1;whiteSpace=wrap;html=1;fillColor=#d5e8d4;strokeColor=#82b366;" parent="1" vertex="1">
          <mxGeometry x="-380" y="768" width="209.75" height="20" as="geometry" />
        </mxCell>
        <mxCell id="r_N18aDr957ke0yvaHsw-4" value="filter_ovelap(bokser_ for)" style="rounded=1;whiteSpace=wrap;html=1;fillColor=#d5e8d4;strokeColor=#82b366;" parent="1" vertex="1">
          <mxGeometry x="1104.75" y="333" width="209.75" height="20" as="geometry" />
        </mxCell>
        <mxCell id="r_N18aDr957ke0yvaHsw-5" value="get_unique_bokses(bokser_ for, bokser_etter)" style="rounded=1;whiteSpace=wrap;html=1;fillColor=#d5e8d4;strokeColor=#82b366;" parent="1" vertex="1">
          <mxGeometry x="1104.75" y="376" width="209.75" height="40" as="geometry" />
        </mxCell>
        <mxCell id="r_N18aDr957ke0yvaHsw-31" value="" style="edgeStyle=orthogonalEdgeStyle;rounded=0;orthogonalLoop=1;jettySize=auto;html=1;" parent="1" source="r_N18aDr957ke0yvaHsw-6" target="r_N18aDr957ke0yvaHsw-12" edge="1">
          <mxGeometry relative="1" as="geometry" />
        </mxCell>
        <mxCell id="r_N18aDr957ke0yvaHsw-6" value="find_unique_boxes(bokses1, bokses2)" style="ellipse;whiteSpace=wrap;html=1;fillColor=#d5e8d4;strokeColor=#82b366;" parent="1" vertex="1">
          <mxGeometry x="1655.25" y="670.5" width="225" height="51.75" as="geometry" />
        </mxCell>
        <mxCell id="r_N18aDr957ke0yvaHsw-25" value="" style="edgeStyle=orthogonalEdgeStyle;rounded=0;orthogonalLoop=1;jettySize=auto;html=1;" parent="1" source="r_N18aDr957ke0yvaHsw-7" target="r_N18aDr957ke0yvaHsw-11" edge="1">
          <mxGeometry relative="1" as="geometry" />
        </mxCell>
        <mxCell id="r_N18aDr957ke0yvaHsw-26" style="edgeStyle=orthogonalEdgeStyle;rounded=0;orthogonalLoop=1;jettySize=auto;html=1;entryX=0.5;entryY=1;entryDx=0;entryDy=0;" parent="1" source="r_N18aDr957ke0yvaHsw-7" target="r_N18aDr957ke0yvaHsw-16" edge="1">
          <mxGeometry relative="1" as="geometry">
            <mxPoint x="1659.9999999999995" y="990" as="targetPoint" />
          </mxGeometry>
        </mxCell>
        <mxCell id="r_N18aDr957ke0yvaHsw-7" value="if IOU &amp;gt; Threshold" style="rhombus;whiteSpace=wrap;html=1;rounded=0;strokeColor=#d6b656;fillColor=#fff2cc;align=center;" parent="1" vertex="1">
          <mxGeometry x="1859.5" y="1190" width="95.5" height="98" as="geometry" />
        </mxCell>
        <mxCell id="r_N18aDr957ke0yvaHsw-29" value="" style="edgeStyle=orthogonalEdgeStyle;rounded=0;orthogonalLoop=1;jettySize=auto;html=1;" parent="1" source="r_N18aDr957ke0yvaHsw-8" target="r_N18aDr957ke0yvaHsw-7" edge="1">
          <mxGeometry relative="1" as="geometry" />
        </mxCell>
        <mxCell id="r_N18aDr957ke0yvaHsw-30" style="edgeStyle=orthogonalEdgeStyle;rounded=0;orthogonalLoop=1;jettySize=auto;html=1;entryX=0;entryY=0.5;entryDx=0;entryDy=0;" parent="1" source="r_N18aDr957ke0yvaHsw-8" target="r_N18aDr957ke0yvaHsw-15" edge="1">
          <mxGeometry relative="1" as="geometry">
            <Array as="points">
              <mxPoint x="1818" y="1134" />
              <mxPoint x="1818" y="1020" />
            </Array>
          </mxGeometry>
        </mxCell>
        <mxCell id="r_N18aDr957ke0yvaHsw-8" value="regner ut IOU mellom boks og ikke_overlapp boks" style="rounded=0;whiteSpace=wrap;html=1;fillColor=#fff2cc;strokeColor=#d6b656;" parent="1" vertex="1">
          <mxGeometry x="1837.5" y="1108" width="139.5" height="52" as="geometry" />
        </mxCell>
        <mxCell id="r_N18aDr957ke0yvaHsw-11" value="Legg til boks 1 og 2 i unike bokser liste" style="rounded=0;whiteSpace=wrap;html=1;fillColor=#fff2cc;strokeColor=#d6b656;" parent="1" vertex="1">
          <mxGeometry x="1837.5" y="1330" width="139.5" height="52" as="geometry" />
        </mxCell>
        <mxCell id="r_N18aDr957ke0yvaHsw-32" value="" style="edgeStyle=orthogonalEdgeStyle;rounded=0;orthogonalLoop=1;jettySize=auto;html=1;" parent="1" source="r_N18aDr957ke0yvaHsw-12" target="r_N18aDr957ke0yvaHsw-16" edge="1">
          <mxGeometry relative="1" as="geometry" />
        </mxCell>
        <mxCell id="r_N18aDr957ke0yvaHsw-12" value="Lager tom liste med unike bokser" style="rounded=0;whiteSpace=wrap;html=1;fillColor=#fff2cc;strokeColor=#d6b656;" parent="1" vertex="1">
          <mxGeometry x="1698" y="772.75" width="139.5" height="52" as="geometry" />
        </mxCell>
        <mxCell id="r_N18aDr957ke0yvaHsw-28" value="" style="edgeStyle=orthogonalEdgeStyle;rounded=0;orthogonalLoop=1;jettySize=auto;html=1;" parent="1" source="r_N18aDr957ke0yvaHsw-15" target="r_N18aDr957ke0yvaHsw-8" edge="1">
          <mxGeometry relative="1" as="geometry" />
        </mxCell>
        <mxCell id="r_N18aDr957ke0yvaHsw-15" value="for boks2 in boxes2" style="rhombus;whiteSpace=wrap;html=1;rounded=0;strokeColor=#d6b656;fillColor=#fff2cc;align=center;" parent="1" vertex="1">
          <mxGeometry x="1859.5" y="971.2500000000001" width="95.5" height="98" as="geometry" />
        </mxCell>
        <mxCell id="r_N18aDr957ke0yvaHsw-27" style="edgeStyle=orthogonalEdgeStyle;rounded=0;orthogonalLoop=1;jettySize=auto;html=1;entryX=0.5;entryY=0;entryDx=0;entryDy=0;" parent="1" source="r_N18aDr957ke0yvaHsw-16" target="r_N18aDr957ke0yvaHsw-15" edge="1">
          <mxGeometry relative="1" as="geometry" />
        </mxCell>
        <mxCell id="r_N18aDr957ke0yvaHsw-33" style="edgeStyle=orthogonalEdgeStyle;rounded=0;orthogonalLoop=1;jettySize=auto;html=1;entryX=0.5;entryY=0;entryDx=0;entryDy=0;" parent="1" source="r_N18aDr957ke0yvaHsw-16" target="r_N18aDr957ke0yvaHsw-34" edge="1">
          <mxGeometry relative="1" as="geometry">
            <mxPoint x="1599.9999999999995" y="1000" as="targetPoint" />
          </mxGeometry>
        </mxCell>
        <mxCell id="r_N18aDr957ke0yvaHsw-16" value="for boks1 in boxes1" style="rhombus;whiteSpace=wrap;html=1;rounded=0;strokeColor=#d6b656;fillColor=#fff2cc;align=center;" parent="1" vertex="1">
          <mxGeometry x="1720" y="867.7500000000001" width="95.5" height="98" as="geometry" />
        </mxCell>
        <mxCell id="r_N18aDr957ke0yvaHsw-34" value="Return unike_bokser liste" style="ellipse;whiteSpace=wrap;html=1;fillColor=#d5e8d4;strokeColor=#82b366;" parent="1" vertex="1">
          <mxGeometry x="1530" y="1011" width="161" height="49" as="geometry" />
        </mxCell>
        <mxCell id="r_N18aDr957ke0yvaHsw-35" value="Løkke ferdig" style="text;html=1;align=center;verticalAlign=middle;resizable=0;points=[];autosize=1;" parent="1" vertex="1">
          <mxGeometry x="1610" y="884" width="80" height="20" as="geometry" />
        </mxCell>
        <mxCell id="r_N18aDr957ke0yvaHsw-38" value="b)" style="text;html=1;align=center;verticalAlign=middle;resizable=0;points=[];autosize=1;" parent="1" vertex="1">
          <mxGeometry x="1250.5" y="940" width="30" height="20" as="geometry" />
        </mxCell>
        <mxCell id="OI-lx5I4sna6sdSm4W62-12" value="categorize_bokses(unique_bokses)" style="rounded=1;whiteSpace=wrap;html=1;fillColor=#d5e8d4;strokeColor=#82b366;" parent="1" vertex="1">
          <mxGeometry x="1104.75" y="448" width="209.75" height="40" as="geometry" />
        </mxCell>
        <mxCell id="OI-lx5I4sna6sdSm4W62-14" value="draw_bokses(unique_bokses)" style="rounded=1;whiteSpace=wrap;html=1;fillColor=#d5e8d4;strokeColor=#82b366;" parent="1" vertex="1">
          <mxGeometry x="1104.75" y="527" width="209.75" height="40" as="geometry" />
        </mxCell>
        <mxCell id="GfadqTVx7JrLC5rxwEHc-1" value="Tegn forskjeller" style="rounded=1;whiteSpace=wrap;html=1;fillColor=#d5e8d4;strokeColor=#82b366;" vertex="1" parent="1">
          <mxGeometry x="-380" y="922.25" width="209.75" height="20" as="geometry" />
        </mxCell>
        <mxCell id="GfadqTVx7JrLC5rxwEHc-2" value="&lt;font style=&quot;font-size: 19px&quot;&gt;Hent grener&lt;/font&gt;" style="text;html=1;align=center;verticalAlign=middle;resizable=0;points=[];autosize=1;" vertex="1" parent="1">
          <mxGeometry y="542.5" width="120" height="20" as="geometry" />
        </mxCell>
        <mxCell id="GfadqTVx7JrLC5rxwEHc-17" style="edgeStyle=orthogonalEdgeStyle;rounded=0;orthogonalLoop=1;jettySize=auto;html=1;entryX=0.5;entryY=0;entryDx=0;entryDy=0;" edge="1" parent="1" source="GfadqTVx7JrLC5rxwEHc-4" target="GfadqTVx7JrLC5rxwEHc-7">
          <mxGeometry relative="1" as="geometry" />
        </mxCell>
        <mxCell id="GfadqTVx7JrLC5rxwEHc-4" value="Bruk kmeans" style="rounded=0;whiteSpace=wrap;html=1;fillColor=#fff2cc;strokeColor=#d6b656;" vertex="1" parent="1">
          <mxGeometry y="762" width="209.75" height="32" as="geometry" />
        </mxCell>
        <mxCell id="GfadqTVx7JrLC5rxwEHc-15" style="edgeStyle=orthogonalEdgeStyle;rounded=0;orthogonalLoop=1;jettySize=auto;html=1;entryX=0.5;entryY=0;entryDx=0;entryDy=0;" edge="1" parent="1" source="GfadqTVx7JrLC5rxwEHc-5" target="GfadqTVx7JrLC5rxwEHc-4">
          <mxGeometry relative="1" as="geometry" />
        </mxCell>
        <mxCell id="GfadqTVx7JrLC5rxwEHc-5" value="Hent lilla kontur" style="rounded=1;whiteSpace=wrap;html=1;fillColor=#d5e8d4;strokeColor=#82b366;" vertex="1" parent="1">
          <mxGeometry y="700" width="209.75" height="20" as="geometry" />
        </mxCell>
        <mxCell id="GfadqTVx7JrLC5rxwEHc-20" style="edgeStyle=orthogonalEdgeStyle;rounded=0;orthogonalLoop=1;jettySize=auto;html=1;exitX=0.5;exitY=1;exitDx=0;exitDy=0;entryX=0.5;entryY=0;entryDx=0;entryDy=0;" edge="1" parent="1" source="GfadqTVx7JrLC5rxwEHc-6" target="GfadqTVx7JrLC5rxwEHc-9">
          <mxGeometry relative="1" as="geometry" />
        </mxCell>
        <mxCell id="GfadqTVx7JrLC5rxwEHc-6" value="Kategoriser grener" style="rounded=0;whiteSpace=wrap;html=1;fillColor=#fff2cc;strokeColor=#d6b656;" vertex="1" parent="1">
          <mxGeometry y="960" width="209.75" height="32" as="geometry" />
        </mxCell>
        <mxCell id="GfadqTVx7JrLC5rxwEHc-18" style="edgeStyle=orthogonalEdgeStyle;rounded=0;orthogonalLoop=1;jettySize=auto;html=1;entryX=0.5;entryY=0;entryDx=0;entryDy=0;" edge="1" parent="1" source="GfadqTVx7JrLC5rxwEHc-7" target="GfadqTVx7JrLC5rxwEHc-8">
          <mxGeometry relative="1" as="geometry" />
        </mxCell>
        <mxCell id="GfadqTVx7JrLC5rxwEHc-7" value="Graf&amp;nbsp;" style="rounded=1;whiteSpace=wrap;html=1;fillColor=#d5e8d4;strokeColor=#82b366;" vertex="1" parent="1">
          <mxGeometry y="839" width="209.75" height="20" as="geometry" />
        </mxCell>
        <mxCell id="GfadqTVx7JrLC5rxwEHc-19" style="edgeStyle=orthogonalEdgeStyle;rounded=0;orthogonalLoop=1;jettySize=auto;html=1;exitX=0.5;exitY=1;exitDx=0;exitDy=0;entryX=0.5;entryY=0;entryDx=0;entryDy=0;" edge="1" parent="1" source="GfadqTVx7JrLC5rxwEHc-8" target="GfadqTVx7JrLC5rxwEHc-6">
          <mxGeometry relative="1" as="geometry" />
        </mxCell>
        <mxCell id="GfadqTVx7JrLC5rxwEHc-8" value="Finn nøkkelpunkter" style="rounded=1;whiteSpace=wrap;html=1;fillColor=#d5e8d4;strokeColor=#82b366;" vertex="1" parent="1">
          <mxGeometry y="902.25" width="209.75" height="20" as="geometry" />
        </mxCell>
        <mxCell id="GfadqTVx7JrLC5rxwEHc-9" value="Returner grener" style="ellipse;whiteSpace=wrap;html=1;fillColor=#d5e8d4;strokeColor=#82b366;" vertex="1" parent="1">
          <mxGeometry x="24.620000000000005" y="1040" width="161" height="49" as="geometry" />
        </mxCell>
        <mxCell id="GfadqTVx7JrLC5rxwEHc-23" value="" style="edgeStyle=orthogonalEdgeStyle;rounded=0;orthogonalLoop=1;jettySize=auto;html=1;" edge="1" parent="1" source="GfadqTVx7JrLC5rxwEHc-21" target="GfadqTVx7JrLC5rxwEHc-5">
          <mxGeometry relative="1" as="geometry" />
        </mxCell>
        <mxCell id="GfadqTVx7JrLC5rxwEHc-21" value="Hent grener" style="ellipse;whiteSpace=wrap;html=1;rounded=1;strokeColor=#82b366;fillColor=#d5e8d4;" vertex="1" parent="1">
          <mxGeometry y="610" width="210" height="40" as="geometry" />
        </mxCell>
      </root>
    </mxGraphModel>
  </diagram>
</mxfile>
